# xmcd
#
# Track frame offsets: 
#        150
#        11392
#        26397
#        42672
#        62277
#        77775
#        92935
#        110282
#        126492
#        154080
#
# Disc length: 2284 seconds
#
# Revision: 8
# Processed by: cddbd v1.5.2PL0 Copyright (c) Steve Scherf et al.
# Submitted via: ExactAudioCopy v1.5
#
DISCID=7608ea0a
DTITLE=Keziah Jones - Black Orpheus {LimEd,Delabel,7243 5969520 4} CD2
DYEAR=2003
DGENRE=Funk
TTITLE0=Cutest Lips (Acoustic)
TTITLE1=Guitar in the River
TTITLE2=All Along the Watchtower (Acoustic)
TTITLE3=Beautiful Emilie (Acoustic)
TTITLE4=Neurotica
TTITLE5=Rhythm Is Love (Acoustic)
TTITLE6=Million Miles from Home (Acoustic)
TTITLE7=When Somebody Loves You (Acoustic)
TTITLE8=So Much Trouble in the World
TTITLE9=Media
EXTD=
EXTT0=
EXTT1=
EXTT2=
EXTT3=
EXTT4=
EXTT5=
EXTT6=
EXTT7=
EXTT8=
EXTT9=
PLAYORDER=
